<svg xmlns="http://www.w3.org/2000/svg" width="56" height="56" viewBox="0 0 56 56">
    <g fill="none" fill-rule="evenodd">
        <ellipse cx="28" cy="27.93" fill="#FCDEDE" rx="28" ry="27.93"/>
        <path fill="#F7E6C4" d="M37.713 43.002H19.159c-1.2 0-2.24-.814-2.514-1.967l-2.822-11.887h29.225l-2.821 11.887a2.575 2.575 0 0 1-2.514 1.967"/>
        <path fill="#EE65A4" d="M39.77 24.67l.007-.002-.047-.016c.014.005.033.01.047.016-.008-.08-.006-.148-.017-.23-1.012-7.48-6.191-6.376-9.71-7.593-3.52-1.216-.946-4.573-.946-4.573-6.057-1.532-10.714 5.677-10.714 5.677-4.201 1.803-1.461 6.489-1.461 6.489-1.9 1.499-2.217 3.216-1.942 4.71H41.08c.625-2.674.192-3.834-1.311-4.478"/>
        <path fill="#010202" d="M36.443 28.716c-.012.152-.007.293.002.432h4.636c.63-2.698.185-3.855-1.351-4.497.015.006.033.01.047.017-.008-.079-.006-.148-.017-.23-1.012-7.48-6.191-6.376-9.71-7.593 0 0 6.847 6.028 6.393 11.87M30.72 43.002h6.993c1.2 0 2.24-.814 2.514-1.967l2.82-11.887h-6.602s.101 10.3-5.725 13.854" opacity=".3"/>
        <path fill="#2E2E31" d="M39.425 40.85a1.747 1.747 0 0 1-1.712 1.34h-.906l1.487-12.229h3.714L39.425 40.85zm-4.278 1.34h-3.34l.514-12.229h4.314L35.147 42.19zm-4.99 0h-3.442l-.516-12.229h4.473l-.516 12.228zm-8.433 0L20.236 29.96h4.314l.515 12.228h-3.341zm-2.565 0a1.747 1.747 0 0 1-1.713-1.34L14.862 29.96h3.715l1.487 12.228h-.905zm-2.28-16.615l.1.096.078.076c.065.064.136.13.21.2l.09.082c.079.073.164.15.252.228l.096.085c.093.083.193.168.296.255l.1.085a20.101 20.101 0 0 0 .446.364c.126.1.258.202.394.305l.1.076c.143.108.294.219.448.33l.092.066c.165.117.337.235.514.355l.074.05c.053.036.102.071.157.107h-4.6c-.029-1.035.352-1.947 1.153-2.76zm.142-5.226c.205-.608.625-1.085 1.28-1.45l.1.07a14.793 14.793 0 0 0 .37.252l.134.088c.127.083.266.171.415.264l.065.04c.173.108.362.221.564.339l.176.1c.151.087.307.175.473.266.083.046.169.091.255.137a31.533 31.533 0 0 0 1.33.67c.103.05.203.097.31.147.22.102.451.204.687.307.083.035.16.071.245.107.325.138.662.276 1.013.412l.21.078c.285.108.576.215.878.32.127.045.258.088.388.132a33.173 33.173 0 0 0 2.05.62c.158.044.316.086.478.128.299.077.604.149.914.22.147.033.29.068.44.101.46.1.932.194 1.418.28 1.252.22 2.372.378 3.388.517l.622.085.018.002.806.11.226.032c.214.03.418.06.617.09l.21.033c.227.036.44.072.645.11l.248.048c.128.026.25.052.369.08a6.92 6.92 0 0 1 .723.195c.044.013.08.03.122.044.487.176.846.391 1.049.68.31.445.361 1.194.153 2.332H23.58a23.742 23.742 0 0 1-2.857-1.709l-.058-.04c-.136-.096-.266-.19-.394-.284-.031-.024-.064-.047-.096-.07l-.34-.259-.11-.084a25.302 25.302 0 0 1-.668-.545l-.105-.09a16.163 16.163 0 0 1-.227-.198c-.035-.03-.066-.059-.099-.089l-.194-.175-.084-.08a19.158 19.158 0 0 1-.304-.292l-.065-.064-.069-.069a8.743 8.743 0 0 1-.107-.109l-.044-.046-.086-.091-.022-.025-.043-.046c-.19-.359-1.082-2.154-.587-3.62zm10.777-7.464c-.326.718-.592 1.692-.3 2.646.292.96 1.06 1.66 2.28 2.082.83.287 1.738.452 2.614.612 2.791.509 5.439.992 6.37 5.277-.076-.017-.16-.032-.238-.049l-.06-.012c-.257-.053-.53-.104-.817-.153l-.14-.023a48.14 48.14 0 0 0-.849-.129l-.163-.024c-.333-.047-.68-.094-1.048-.144l-.45-.061a89.543 89.543 0 0 1-3.495-.531 33.76 33.76 0 0 1-1.32-.26l-.39-.09a35.037 35.037 0 0 1-1.289-.319c-.293-.079-.58-.16-.86-.244-.104-.03-.21-.06-.312-.092a33.2 33.2 0 0 1-1.096-.357l-.15-.054a31.942 31.942 0 0 1-.877-.322c-.107-.04-.21-.082-.314-.123a31.857 31.857 0 0 1-1.63-.695c-.062-.028-.127-.056-.187-.085a30.992 30.992 0 0 1-.78-.378l-.164-.084a27.979 27.979 0 0 1-1.826-1.018l-.057-.034c-.163-.1-.31-.193-.443-.28l-.086-.056a12.975 12.975 0 0 1-.185-.124c1.144-1.494 4.346-5.13 8.262-4.876zm15.895 15.759a.826.826 0 0 0-.645-.309h-.974c.224-1.453.078-2.484-.462-3.256-.27-.387-.63-.683-1.063-.927-.917-6.256-4.761-6.961-7.858-7.526-.852-.155-1.658-.302-2.369-.548-.693-.24-1.113-.58-1.246-1.014-.252-.813.41-1.939.685-2.302a.805.805 0 0 0 .121-.759.821.821 0 0 0-.573-.52c-6.048-1.527-10.644 4.624-11.48 5.833-1.203.574-2.004 1.421-2.374 2.529-.563 1.683.052 3.486.46 4.398-1.234 1.16-1.85 2.553-1.825 4.092h-.266a.828.828 0 0 0-.646.309.805.805 0 0 0-.156.69l2.82 11.886c.363 1.528 1.726 2.595 3.317 2.595h18.554c1.59 0 2.953-1.067 3.316-2.595l2.82-11.886a.806.806 0 0 0-.156-.69z"/>
    </g>
</svg>
