<?xml version="1.0" encoding="UTF-8"?>
<svg width="153px" height="133px" viewBox="0 0 153 133" version="1.1" xmlns="http://www.w3.org/2000/svg" xmlns:xlink="http://www.w3.org/1999/xlink">
    <!-- Generator: Sketch 52.6 (67491) - http://www.bohemiancoding.com/sketch -->
    <title>Group 11</title>
    <desc>Created with Sketch.</desc>
    <g id="Page-1" stroke="none" stroke-width="1" fill="none" fill-rule="evenodd">
        <g id="5.1-Document:-Form-16-Empty-State" transform="translate(-596.000000, -241.000000)">
            <g id="Group-11" transform="translate(596.000000, 241.000000)">
                <g id="Group-5" transform="translate(23.000000, 4.000000)">
                    <path d="M26,9.07101885 L26,1.92898115 C26,0.864335792 25.1067255,0 23.9994807,0 C22.8963905,0 22,0.864335792 22,1.92898115 L22,9.07101885 C22,10.1356642 22.8963905,11 23.9994807,11 C25.1067255,11 26,10.1356642 26,9.07101885" id="Fill-2132" fill="#FFE174"></path>
                    <path d="M9.07137005,26 C10.1358216,26 11,25.1044156 11,24.001039 C11,22.8966234 10.1358216,22 9.07137005,22 L1.92762858,22 C0.865179791,22 0,22.8966234 0,24.001039 C0,25.1044156 0.865179791,26 1.92762858,26 L9.07137005,26 Z" id="Fill-2133" fill="#FFE174"></path>
                    <path d="M36.3266149,15.4302901 L41.4300051,10.325163 C42.1899983,9.56420058 42.1899983,8.33067236 41.4300051,7.57072183 C40.6689998,6.80975939 39.4343903,6.80975939 38.6723731,7.57072183 L33.5699949,12.674837 C32.8100017,13.4347875 32.8100017,14.6683157 33.5699949,15.4302901 C33.9504976,15.8097594 34.4504132,16 34.9483049,16 C35.4461967,16 35.9461123,15.8097594 36.3266149,15.4302901" id="Fill-2134" fill="#FFE174"></path>
                    <path d="M9.32638131,41.4293423 L14.4294126,36.3247892 C15.1903644,35.5649241 15.1903644,34.3305228 14.4284007,33.5706577 C13.6684609,32.8097808 12.4339382,32.8097808 11.6750102,33.5706577 L6.56995512,38.674199 C5.80900339,39.4350759 5.8110272,40.6694772 6.56995512,41.4293423 C6.95144289,41.8097808 7.4503115,42 7.94816822,42 C8.44703683,42 8.94590545,41.808769 9.32638131,41.4293423" id="Fill-2135" fill="#FFE174"></path>
                    <path d="M14.42923,15.4291658 C15.1902567,14.6680536 15.1902567,13.4352948 14.42923,12.6731705 L9.32670846,7.57007507 C8.56466983,6.80997498 7.33103758,6.80997498 6.57001096,7.57007507 C5.80999635,8.33219939 5.80999635,9.56495825 6.57001096,10.3260705 L11.6725325,15.4291658 C12.0530458,15.8097219 12.5529756,16 13.0518933,16 C13.549799,16 14.0487167,15.8097219 14.42923,15.4291658" id="Fill-2136" fill="#FFE174"></path>
                    <path d="M87,43.7352312 L87,113.358709 C87,115.333985 85.3204789,117 83.3313872,117 L22.6686128,117 C20.678516,117 19,115.361918 19,113.358709 L19,23.6422885 C19,21.6380821 20.6493681,20 22.6686128,20 L63.0856699,20" id="Stroke-2151" stroke="#A3B2C7" stroke-width="4" stroke-linecap="round" stroke-linejoin="round"></path>
                    <circle id="Oval" stroke="#A3B2C7" stroke-width="2" fill="#FFFFFF" cx="80.5" cy="104.5" r="23.5"></circle>
                    <g id="Group-8" transform="translate(68.000000, 92.000000)">
                        <path d="M11.9886224,24.9165834 L14.0083795,24.9165834 L15.0907134,22.0781118 L15.359548,22.00715 C16.1740467,21.7942646 16.9605627,21.4674406 17.6951107,21.037672 L17.9359625,20.8977474 L20.7112546,22.1400784 L22.1383764,20.7118475 L20.8951415,17.936342 L21.0370541,17.6954717 C21.4677891,16.9588683 21.7945879,16.1742908 22.0064576,15.3627278 L22.0774139,15.0928731 L24.9156673,14.0104559 L24.9166667,11.9905436 L22.0774139,10.9071269 L22.0064576,10.6372722 C21.7955873,9.8267087 21.4677891,9.0411317 21.0360547,8.30252941 L20.8951415,8.06265857 L22.1383764,5.28815253 L20.7112546,3.85892212 L17.9349631,5.10225263 L17.6951107,4.96132852 C16.9625615,4.53255939 16.1760455,4.20673484 15.3585486,3.99185054 L15.089714,3.92088875 L14.0083795,1.08341662 L11.9886224,1.08341662 L10.9072878,3.92088875 L10.6364545,3.99185054 C9.81995695,4.20673484 9.03444034,4.53255939 8.30289053,4.96132852 L8.06203875,5.10225263 L5.287746,3.85892212 L3.85862546,5.28815253 L5.10186039,8.06265857 L4.96094711,8.30352887 C4.53121156,9.03613439 4.20541205,9.82171139 3.99054428,10.6382717 L3.92058733,10.9081264 L1.08333333,11.9895441 L1.08333333,14.0104559 L3.92058733,15.0918736 L3.99054428,15.3617283 C4.20541205,16.1792881 4.53221095,16.9648651 4.96094711,17.6954717 L5.10186039,17.936342 L3.85862546,20.7118475 L5.287746,22.1400784 L8.06203875,20.8977474 L8.30289053,21.0386715 C9.03444034,21.4674406 9.81995695,21.7932652 10.6364545,22.00715 L10.9072878,22.0781118 L11.9886224,24.9165834 Z M14.75492,26 L11.2420818,26 L10.0917897,22.9806258 C9.36523678,22.7687399 8.6646679,22.4778965 8.00007688,22.1120935 L5.04989237,23.433382 L2.56542128,20.9497194 L3.88760763,17.9993081 C3.52083333,17.3356654 3.2300123,16.6340432 3.0171433,15.9074345 L0,14.7560544 L0,11.2439456 L3.0171433,10.0925655 C3.22901292,9.36695625 3.52083333,8.66533405 3.88760763,8.00069194 L2.56542128,5.05028062 L5.04889299,2.56461905 L8.00007688,3.88690705 C8.6646679,3.52210348 9.36523678,3.23026063 10.0917897,3.01937418 L11.2420818,0 L14.7559194,0 L15.9042128,3.01937418 C16.6307657,3.23026063 17.3333333,3.52210348 17.9979244,3.88690705 L20.9491082,2.56461905 L23.43258,5.05028062 L22.1103936,8.00069194 C22.4781673,8.6693319 22.7699877,9.3709541 22.9798585,10.0915661 L26,11.244945 L25.9990006,14.7560544 L22.9798585,15.9074345 C22.7689883,16.6300454 22.4781673,17.3316676 22.1103936,17.9983086 L23.43258,20.9497194 L20.9491082,23.433382 L17.9979244,22.1120935 C17.3313346,22.4778965 16.6297663,22.7697394 15.9052122,22.9806258 L14.75492,26 Z" id="Fill-3681" fill="#7F8FA4"></path>
                        <g id="Group-9" transform="translate(5.900000, 6.500000)" fill="#A3B2C7">
                            <path d="M0.152419355,9 C0.0508064516,8.35728031 0,7.68505452 0,7 L0.874193548,7 C0.874193548,7.56959589 0.916129032,8.1289288 1,8.66132136 L0.152419355,9 Z" id="Fill-3682"></path>
                            <path d="M6.74865839,13 C4.24581498,13 1.98902683,11.4539514 1,9.06042435 L1.95730877,8.63268758 C2.78101722,10.62746 4.66199439,11.9166667 6.74865839,11.9166667 C9.6205847,11.9166667 11.9581097,9.48716175 11.9581097,6.5 C11.9581097,3.51283825 9.6205847,1.08333333 6.74865839,1.08333333 L6.74865839,0 C10.1953544,0 13,2.91620541 13,6.5 C13,10.0837946 10.1953544,13 6.74865839,13" id="Fill-3683"></path>
                            <path d="M1.03962338,5 L0,4.7820216 C0.507061593,2.43634259 2.37249902,0.558449074 4.75284425,0 L5,1.01658951 C3.01686936,1.48244599 1.46233817,3.04591049 1.03962338,5" id="Fill-3684"></path>
                        </g>
                        <path d="M12.499462,16 C10.5678709,16 9,14.4332052 9,12.500538 C9,10.5667948 10.5678709,9 12.499462,9 C14.4321291,9 16,10.5667948 16,12.500538 C16,14.4332052 14.4321291,16 12.499462,16" id="Fill-3685" fill="#CBD5E1"></path>
                    </g>
                    <path d="M87,44 L66.6827638,44 C64.6572942,44 63,42.3436449 63,40.3170814 L63,20 L87,44 Z" id="Stroke-2152" stroke="#A3B2C7" stroke-width="4" stroke-linecap="round" stroke-linejoin="round"></path>
                    <path d="M33,39 L52,39" id="Stroke-2153" stroke="#CBD5E1" stroke-width="4" stroke-linecap="round" stroke-linejoin="round"></path>
                    <path d="M33,58 L71,58" id="Stroke-2154" stroke="#CBD5E1" stroke-width="4" stroke-linecap="round" stroke-linejoin="round"></path>
                    <path d="M33,68 L71,68" id="Stroke-2155" stroke="#CBD5E1" stroke-width="4" stroke-linecap="round" stroke-linejoin="round"></path>
                    <path d="M33,79 L71,79" id="Stroke-2156" stroke="#CBD5E1" stroke-width="4" stroke-linecap="round" stroke-linejoin="round"></path>
                    <path d="M33,89 L52,89" id="Stroke-2157" stroke="#CBD5E1" stroke-width="4" stroke-linecap="round" stroke-linejoin="round"></path>
                </g>
                <path d="M92.3952601,6 C91.6242775,6 91,5.32723881 91,4.4988806 C91,3.67052239 91.6242775,3 92.3952601,3 L98.6047399,3 C99.3746821,3 100,3.67052239 100,4.4988806 C100,5.32723881 99.3746821,6 98.6047399,6 L92.3952601,6 Z" id="Fill-3659" fill="#CBD5E1"></path>
                <path d="M94,7.60561915 L94,1.39438085 C94,0.624349636 94.6725103,0 95.4994405,0 C96.3263708,0 97,0.624349636 97,1.39438085 L97,7.60561915 C97,8.37565036 96.3263708,9 95.4994405,9 C94.6725103,9 94,8.37565036 94,7.60561915" id="Fill-3660" fill="#CBD5E1"></path>
                <path d="M128.79052,88.4989593 C128.791561,89.4449584 129.553179,90.2077937 130.50104,90.2098751 C131.44474,90.2077937 132.208439,89.4439177 132.21052,88.4989593 C132.208439,87.5540009 131.44578,86.7922063 130.50104,86.7901249 C129.553179,86.7901249 128.791561,87.5529602 128.79052,88.4989593 M126,88.4989593 C126,86.0127197 128.014335,84.0041628 130.50104,84 C132.983584,84 135,86.011679 135,88.4989593 C135,90.9862396 132.983584,92.9989593 130.50104,93 C128.014335,92.9989593 126,90.9851989 126,88.4989593" id="Fill-3664" fill="#CBD5E1"></path>
                <path d="M143.374615,73 C142.616525,73 142,72.3283582 142,71.5 C142,70.6716418 142.616525,70 143.374615,70 L151.625385,70 C152.384501,70 153,70.6716418 153,71.5 C153,72.3283582 152.384501,73 151.625385,73 L143.374615,73 Z" id="Fill-3667" fill="#CBD5E1"></path>
                <path d="M139.374615,77 C138.615499,77 138,76.3274897 138,75.4983215 C138,74.6713913 138.615499,74 139.374615,74 L147.624359,74 C148.383475,74 149,74.6713913 149,75.4983215 C149,76.3274897 148.383475,77 147.624359,77 L139.374615,77 Z" id="Fill-3668" fill="#CBD5E1"></path>
                <polygon id="Fill-3677" fill="#CBD5E1" points="8 63 22 63 22 61 8 61"></polygon>
                <polygon id="Fill-3678" fill="#CBD5E1" points="14 68 18 68 18 66 14 66"></polygon>
                <polygon id="Fill-3679" fill="#CBD5E1" points="3 68 12 68 12 66 3 66"></polygon>
                <polygon id="Fill-3680" fill="#CBD5E1" points="8 73 22 73 22 71 8 71"></polygon>
                <g id="Group-10" transform="translate(0.000000, 102.000000)">
                    <path d="M12.1361071,3.8525684 C12.7701146,1.16246295 15.4592149,-0.498985672 18.1512778,0.134793301 C20.8374155,0.76758508 22.4984756,3.46262651 21.8654556,6.14779599 C21.2314482,8.83691425 18.5403728,10.4983629 15.8502849,9.86557109 C13.1641473,9.23179212 11.4981494,6.53773788 12.1361071,3.8525684" id="Fill-3691" fill="#F5F7F9"></path>
                    <path d="M17.0049581,1.52078587 C14.9745307,1.52078587 13.1293461,2.91359936 12.6419193,4.97281098 L12.6419193,4.97384576 C12.3666422,6.1348686 12.561199,7.33728262 13.188334,8.35447108 C13.8175389,9.37372909 14.8058458,10.0866923 15.9711166,10.3629785 C18.3585764,10.91969 20.7926056,9.43374632 21.3607527,7.02995305 C21.927865,4.625125 20.4345384,2.2078796 18.0315554,1.63978554 C17.6890114,1.55907272 17.3454324,1.52078587 17.0049581,1.52078587 M16.9977139,12 C16.5444381,12 16.0818484,11.948261 15.6223633,11.8406439 C14.0607348,11.4722623 12.7371279,10.5171607 11.8957735,9.15125146 C11.0533841,7.7874118 10.794665,6.18143369 11.1641159,4.625125 C11.9216454,1.4069601 15.1514945,-0.601547316 18.3803088,0.16212011 C21.5987743,0.921648418 23.5991903,4.15947413 22.8385562,7.37970859 C22.1886538,10.135327 19.717369,12 16.9977139,12" id="Fill-3692" fill="#CBD5E1"></path>
                    <path d="M1.10795373,13.0830873 C1.61494533,10.9324991 3.76782274,9.60018357 5.92070015,10.1079322 C8.06727952,10.6146317 9.39931337,12.7662689 8.89232177,14.9168571 C8.38533016,17.0684942 6.22720439,18.3997607 4.08062502,17.8920121 C1.92774761,17.3800673 0.600962119,15.2294791 1.10795373,13.0830873" id="Fill-3693" fill="#F5F7F9"></path>
                    <path d="M1.53495349,12.8036184 C1.14971192,14.4334871 2.16678928,16.0772101 3.80183769,16.4661224 C5.43193441,16.8510762 7.07886688,15.8337689 7.46509879,14.1979626 C7.85034036,12.5651251 6.83623402,10.9223916 5.20118561,10.5354586 C3.57108889,10.1465464 1.92217574,11.1678121 1.53495349,12.8036184 M4.4990358,18 C4.15736912,18 3.81174107,17.9614057 3.4651227,17.879269 C1.0506781,17.3043123 -0.448693977,14.8778168 0.120750503,12.4691341 C0.689204646,10.0555034 3.12345601,8.54735528 5.53492959,9.122312 C7.94838385,9.69232073 9.44874626,12.1198058 8.87930178,14.5314573 C8.39106504,16.6007077 6.53715187,18 4.4990358,18" id="Fill-3694" fill="#CBD5E1"></path>
                </g>
            </g>
        </g>
    </g>
</svg>