<svg xmlns="http://www.w3.org/2000/svg" width="56" height="56" viewBox="0 0 56 56">
    <defs>
        <linearGradient id="a" x1="50%" x2="50%" y1="0%" y2="100%">
            <stop offset="0%" stop-color="#EDFFC4"/>
            <stop offset="100%" stop-color="#DAEBE7"/>
        </linearGradient>
    </defs>
    <g fill="none" fill-rule="evenodd">
        <ellipse cx="28" cy="27.93" fill="url(#a)" rx="28" ry="27.93"/>
        <g fill-rule="nonzero">
            <path fill="#FC3842" d="M33.474 17.155l-1.555.242a.9.9 0 0 0-.753.958l.114 1.594c.06.817-.897 1.285-1.49.729l-1.156-1.085a.877.877 0 0 0-1.206 0l-1.156 1.085c-.593.556-1.55.088-1.49-.729l.114-1.594a.9.9 0 0 0-.752-.958l-1.556-.242c-.797-.123-1.034-1.175-.368-1.638l1.298-.903a.911.911 0 0 0 .269-1.194l-.784-1.387c-.402-.71.26-1.552 1.03-1.313l1.506.469a.886.886 0 0 0 1.088-.532l.577-1.488a.884.884 0 0 1 1.654 0l.578 1.488c.17.438.643.67 1.087.532l.915-.286.59-.183c.772-.24 1.433.603 1.031 1.313l-.784 1.387a.911.911 0 0 0 .269 1.194l1.298.903c.666.463.43 1.515-.368 1.638"/>
            <path fill="#FC5162" d="M33.474 17.155l-.34.053-1.216.189a.9.9 0 0 0-.752.958l.114 1.594c.06.817-.897 1.285-1.49.729l-1.156-1.085a.877.877 0 0 0-1.206 0c-1.256 1.178-1.26 1.22-1.52 1.294-.416-4.2.596-8.358 2.89-11.844.05.088.017.016.637 1.614.171.438.644.67 1.088.531l.915-.285.59-.183c.772-.24 1.433.603 1.03 1.313l-.783 1.387a.911.911 0 0 0 .269 1.194l1.298.903c.666.464.43 1.515-.368 1.638z"/>
            <path fill="#FC3842" d="M40.653 16.093l-1.363.211a.79.79 0 0 0-.66.84l.101 1.397c.052.715-.786 1.125-1.305.638l-1.012-.951a.771.771 0 0 0-1.058 0l-1.013.95c-.518.488-1.355.078-1.304-.637l.095-1.333.34-.053c.798-.123 1.034-1.175.368-1.638l-1.298-.903a.911.911 0 0 1-.268-1.194l.783-1.387c.402-.71-.26-1.552-1.03-1.313l-.59.184a.771.771 0 0 1 .945-.447l1.318.41c.36.112.78-.047.954-.47l.505-1.298a.775.775 0 0 1 1.448 0l.504 1.298a.78.78 0 0 0 .955.47l1.318-.41c.675-.21 1.255.528.903 1.15l-.687 1.214a.8.8 0 0 0 .235 1.047l1.138.791c.583.405.376 1.326-.322 1.434"/>
            <path fill="#EF2235" d="M23.003 12.033l.784 1.387a.911.911 0 0 1-.269 1.194l-1.298.903c-.666.463-.43 1.515.368 1.638l.34.053.095 1.333c.052.715-.786 1.125-1.304.638l-1.013-.951a.771.771 0 0 0-1.057 0l-1.012.95c-.52.488-1.357.078-1.306-.637l.101-1.397a.79.79 0 0 0-.66-.84l-1.362-.211c-.698-.108-.905-1.029-.323-1.434l1.138-.791a.8.8 0 0 0 .236-1.047l-.687-1.214c-.353-.622.227-1.36.903-1.15l1.318.41a.776.776 0 0 0 .952-.466l.506-1.303a.775.775 0 0 1 1.449 0l.505 1.299a.774.774 0 0 0 .953.47l1.319-.41a.771.771 0 0 1 .946.446l-.591-.183c-.772-.24-1.433.603-1.031 1.313"/>
            <path fill="#FFC373" d="M36.951 18.733l-1.13 11.487c-.325 3.292-2.597 5.949-5.587 6.84-4.717 1.398-9.506-1.9-9.992-6.84L19.11 18.733l.537-.505a.771.771 0 0 1 1.058 0l1.013.95c.518.488 1.356.078 1.304-.637l-.095-1.333 1.215.189a.9.9 0 0 1 .753.958l-.114 1.594c-.06.817.897 1.285 1.49.729l1.156-1.085a.877.877 0 0 1 1.206 0l1.157 1.085c.592.556 1.548.088 1.489-.729l-.114-1.594a.9.9 0 0 1 .752-.958l1.216-.189-.095 1.333c-.052.715.786 1.125 1.304.638l1.013-.951a.771.771 0 0 1 1.057 0l.538.505z"/>
            <path fill="#FFC373" d="M31.464 43.674h-6.866c-.954 0-1.656-.912-1.423-1.853l.455-1.851a4.59 4.59 0 0 1 2.198-2.91 7.756 7.756 0 0 0 4.406 0c.206.115.404.247.589.395a4.607 4.607 0 0 1 1.609 2.515l.456 1.85c.232.942-.47 1.854-1.424 1.854z"/>
            <path fill="#EF9A4D" d="M33.628 34.986a7.799 7.799 0 0 1-3.394 2.072c-4.698 1.401-9.505-1.886-9.992-6.839L19.11 18.732l.537-.504a.771.771 0 0 1 1.058 0l.364.342 1.008 10.235c.4 4.064 3.767 7.159 7.789 7.159a7.696 7.696 0 0 0 3.761-.978z"/>
            <path fill="#EF9A4D" d="M30.897 37.514a4.46 4.46 0 0 0-1.095-.135c-2.082 0-3.896 1.439-4.401 3.49l-.69 2.805c-1.169 0-1.753-.975-1.536-1.853l.455-1.851a4.593 4.593 0 0 1 2.198-2.91 7.749 7.749 0 0 0 4.406-.002c.206.117.404.25.589.397l.074.06z"/>
            <path fill="#FFD176" d="M28.917 14.894c0 .497-.397.9-.886.9a.893.893 0 0 1-.886-.9c0-.497.397-.9.886-.9.49 0 .886.403.886.9M36.887 13.995c0 .496-.397.899-.886.899a.893.893 0 0 1-.886-.9c0-.496.397-.899.886-.899.49 0 .886.403.886.9"/>
            <path fill="#FFCA54" d="M20.947 13.995c0 .496-.397.899-.886.899a.893.893 0 0 1-.885-.9c0-.496.396-.899.885-.899.49 0 .886.403.886.9"/>
            <path fill="#FFD176" d="M36.951 18.733l-1.13 11.487a7.985 7.985 0 0 1-1.636 4.122 18.049 18.049 0 0 1-8.277-13.455c.26-.073.26-.111 1.52-1.293a.877.877 0 0 1 1.206 0l1.157 1.084c.592.556 1.548.088 1.489-.728l-.114-1.595a.9.9 0 0 1 .752-.958l1.216-.189-.095 1.333c-.052.715.786 1.125 1.304.638l1.013-.95a.771.771 0 0 1 1.057 0l.538.504z"/>
            <path fill="#231F20" d="M41.312 14.175l-1.137-.79a.119.119 0 0 1-.035-.155l.686-1.213c.652-1.15-.423-2.52-1.672-2.13-.04.012-1.328.42-1.37.413-.04-.006-.07-.029-.09-.076l-.503-1.298a1.435 1.435 0 0 0-2.683 0c-.53 1.365-.51 1.414-.646 1.37l-1.317-.409a1.43 1.43 0 0 0-1.575.521l-.673.21a.223.223 0 0 1-.276-.134l-.577-1.487c-.517-1.328-2.37-1.33-2.888 0l-.577 1.486a.223.223 0 0 1-.275.135l-.674-.21a1.43 1.43 0 0 0-1.574-.52l-1.32.409c-.056.017-.116-.013-.14-.073l-.504-1.298a1.435 1.435 0 0 0-2.683 0c-.541 1.394-.505 1.36-.595 1.374-.04.006-1.33-.4-1.368-.413-1.252-.39-2.323.983-1.672 2.13l.686 1.212c.03.053.014.121-.035.155l-1.136.791a1.466 1.466 0 0 0-.592 1.534c.133.59.6 1.03 1.188 1.122l1.361.21c.06.01.103.064.099.125l-.101 1.396c-.076 1.063.94 1.823 1.897 1.495l.266 2.702c.036.37.36.64.726.603a.671.671 0 0 0 .595-.737l-.35-3.555c.278-.261.353-.367.45-.277 1.041.977 1.297 1.342 1.991 1.341.198 0 .423-.048.621-.144.988-.535.819-1.4.782-1.917l.392.061a.229.229 0 0 1 .19.242l-.114 1.593c-.098 1.35 1.406 2.17 2.46 1.39.104-.077.021-.004 1.298-1.202a.222.222 0 0 1 .304 0l1.156 1.085c1.036.972 2.704.15 2.601-1.273l-.114-1.593a.228.228 0 0 1 .19-.242l.393-.061-.035.489c-.095 1.319 1.454 2.083 2.416 1.181 1.027-.963 1.058-1.053 1.168-.95l.294.277-1.097 11.146a7.27 7.27 0 0 1-1.086 3.186.68.68 0 0 0 .202.931.66.66 0 0 0 .917-.205 8.741 8.741 0 0 0 1.288-3.778l1.013-10.293c.956.328 1.974-.431 1.898-1.495l-.1-1.396a.117.117 0 0 1 .097-.124l1.361-.211a1.442 1.442 0 0 0 1.189-1.122c.132-.59-.1-1.192-.591-1.534zm-19.495.858c-1.122.78-.76 2.489.458 2.82.06.843.1.907-.042.932-.078.012-.037.019-1.104-.982a1.436 1.436 0 0 0-1.62-.235c-.244.122-.259.162-1.35 1.186a.113.113 0 0 1-.191-.094l.101-1.396a1.47 1.47 0 0 0-1.221-1.555l-1.362-.211a.116.116 0 0 1-.047-.21l1.137-.791c.616-.429.807-1.28.436-1.939-.757-1.336-.744-1.258-.678-1.343.036-.046.076-.053.124-.038 1.415.439 1.546.52 1.954.457a1.454 1.454 0 0 0 1.129-.915c.555-1.43.503-1.37.61-1.37.11 0 .058-.051.612 1.374.232.598.819.96 1.428.924.03.599.095.594.992 2.182a.232.232 0 0 1-.068.301l-1.298.903zm11.522 1.526c-1.854.289-1.513.235-1.618.255a1.577 1.577 0 0 0-1.25 1.66c.122 1.703.178 1.744-.032 1.825-.17.065-.136.041-1.385-1.13a1.54 1.54 0 0 0-2.107-.002c-1.223 1.147-1.168 1.108-1.23 1.133a.226.226 0 0 1-.302-.233l.114-1.593c.058-.815-.52-1.55-1.314-1.673-1.671-.26-1.695-.215-1.74-.416-.045-.199-.012-.167 1.39-1.143a1.6 1.6 0 0 0 .469-2.085l-.784-1.387a.226.226 0 0 1 .26-.331l1.505.468a1.556 1.556 0 0 0 1.899-.928l.577-1.487a.223.223 0 0 1 .418 0l.578 1.488a1.556 1.556 0 0 0 1.898.927c1.614-.502 1.619-.554 1.746-.392.123.157.088.133-.765 1.642a1.6 1.6 0 0 0 .47 2.086l1.297.902c.194.135.07.414-.094.414zm7.176-1.061l-1.364.211a1.47 1.47 0 0 0-1.22 1.555c.111 1.537.133 1.462.037 1.509-.097.047-.026.076-1.14-.97a1.427 1.427 0 0 0-.978-.386c-.727 0-1.013.418-1.993 1.337a.113.113 0 0 1-.19-.094l.058-.808c1.266-.362 1.546-2.063.458-2.82l-1.297-.902a.232.232 0 0 1-.068-.302c.81-1.435.991-1.616.991-2.181a1.45 1.45 0 0 0 1.43-.928c.556-1.431.504-1.37.61-1.37.079 0 .1.052.107.072l.506 1.304c.189.484.62.832 1.127.909.215.032.43.016.636-.048 1.453-.452 1.375-.455 1.441-.371.066.084.08.005-.678 1.344-.371.658-.18 1.509.437 1.938l1.137.791a.116.116 0 0 1-.047.21zM31.574 37.313a8.451 8.451 0 0 0 1.738-1.098.681.681 0 0 0 .102-.947.657.657 0 0 0-.933-.104 7.078 7.078 0 0 1-6.496 1.308c-2.813-.837-4.818-3.292-5.11-6.256l-.484-4.916a.666.666 0 0 0-.726-.603.672.672 0 0 0-.595.738l.484 4.915c.303 3.08 2.169 5.697 4.871 6.964-1.32 1.274-1.469 2.553-1.923 4.4-.16.652-.02 1.329.387 1.858.724.942 1.625.832 2.49.832l-.678 2.758a.672.672 0 0 0 .644.838.666.666 0 0 0 .643-.51l.76-3.086h.588v2.922A.67.67 0 0 0 28 48a.67.67 0 0 0 .664-.674v-2.922h.588l.759 3.085c.089.362.45.58.805.491a.675.675 0 0 0 .483-.818l-.679-2.758c.798 0 1.753.127 2.49-.832.407-.53.549-1.207.388-1.858-.452-1.834-.602-3.127-1.924-4.401zm-.143 5.743h-6.862a.813.813 0 0 1-.779-1.014l.455-1.851a3.941 3.941 0 0 1 1.652-2.346c1.36.384 3.097.322 4.207 0a3.944 3.944 0 0 1 1.65 2.346l.456 1.85a.814.814 0 0 1-.779 1.015z"/>
            <path fill="#231F20" d="M28 13.393c-.854 0-1.549.706-1.549 1.573s.695 1.573 1.549 1.573 1.549-.706 1.549-1.573-.695-1.573-1.55-1.573zm0 1.798a.223.223 0 0 1-.221-.225c0-.124.099-.225.22-.225.123 0 .222.101.222.225s-.099.225-.221.225zM35.965 12.494c-.854 0-1.548.706-1.548 1.573s.694 1.573 1.548 1.573c.854 0 1.55-.706 1.55-1.573s-.696-1.573-1.55-1.573zm0 1.798a.223.223 0 0 1-.22-.225c0-.297.442-.297.442 0 0 .124-.1.225-.222.225zM20.034 12.494c-.854 0-1.548.706-1.548 1.573s.695 1.573 1.548 1.573c.854 0 1.55-.706 1.55-1.573s-.695-1.573-1.55-1.573zm-.22 1.573c0-.297.442-.297.442 0s-.443.297-.443 0z"/>
        </g>
    </g>
</svg>
