<?xml version="1.0" encoding="UTF-8"?>
<svg width="129px" height="129px" viewBox="0 0 129 129" version="1.1" xmlns="http://www.w3.org/2000/svg" xmlns:xlink="http://www.w3.org/1999/xlink">
    <!-- Generator: Sketch 52.6 (67491) - http://www.bohemiancoding.com/sketch -->
    <title>Group 3</title>
    <desc>Created with Sketch.</desc>
    <g id="Page-1" stroke="none" stroke-width="1" fill="none" fill-rule="evenodd">
        <g id="6-No-Starred-Employees" transform="translate(-803.000000, -247.000000)">
            <g id="Group-3" transform="translate(803.000000, 246.000000)">
                <g id="Group-2" transform="translate(0.000000, 0.974497)">
                    <path d="M43,5 C42.7371134,5 42.4793814,4.8943299 42.2929553,4.70704467 C42.1073883,4.52147766 42,4.26460481 42,4 C42,3.7371134 42.1073883,3.48024055 42.2929553,3.29295533 C42.4793814,3.10738832 42.7371134,3 43,3 C43.2628866,3 43.5214777,3.10738832 43.7070447,3.29295533 C43.8926117,3.47852234 44,3.7371134 44,4 C44,4.26460481 43.8926117,4.52147766 43.7070447,4.70704467 C43.5214777,4.8943299 43.2628866,5 43,5" id="Fill-5485" fill="#CBD5E1"></path>
                    <path d="M44.8916563,12 C44.4385057,12 44.0139149,11.6807944 43.8501714,11.1654898 L43.0676298,8.70226853 C42.8572385,8.04424745 43.1542616,7.31650228 43.7292678,7.07682572 C44.3042741,6.83714917 44.9411601,7.1770541 45.1496475,7.83507518 L45.9331411,10.2982965 C46.1416285,10.9563176 45.8465094,11.6829733 45.2705511,11.9237393 C45.1458395,11.9749429 45.0182719,12 44.8916563,12" id="Fill-5486" fill="#CBD5E1"></path>
                    <path d="M47.8808234,20 C47.4232001,20 46.9944187,19.7204761 46.829059,19.2707659 L45.0677863,14.4855827 C44.8562797,13.9113227 45.1562345,13.2762139 45.7378775,13.0670464 C46.3175977,12.8578788 46.9598085,13.1545165 47.1713151,13.7287765 L48.9325878,18.5149104 C49.143133,19.0891704 48.8441396,19.7233284 48.263458,19.9324959 C48.1375154,19.9781325 48.0086887,20 47.8808234,20" id="Fill-5487" fill="#CBD5E1"></path>
                    <path d="M24,16 C23.7371134,16 23.4793814,15.8926117 23.2929553,15.7070447 C23.1073883,15.5197595 23,15.2628866 23,15 C23,14.7371134 23.1073883,14.4785223 23.2929553,14.2929553 C23.4793814,14.1056701 23.7371134,14 24,14 C24.2628866,14 24.5214777,14.1056701 24.7070447,14.2929553 C24.8926117,14.4785223 25,14.7371134 25,15 C25,15.2628866 24.8926117,15.5197595 24.7070447,15.7070447 C24.5214777,15.8926117 24.2628866,16 24,16" id="Fill-5488" fill="#CBD5E1"></path>
                    <path d="M27.7794728,21 C27.4299682,21 27.0846618,20.8613046 26.8422126,20.593681 L25.2857099,18.8678021 C24.8522401,18.3872518 24.9194122,17.6693565 25.436847,17.2659677 C25.9542818,16.8625789 26.7236119,16.9250895 27.1581312,17.4056398 L28.714634,19.1324955 C29.1481037,19.6130458 29.0798821,20.3299644 28.5634968,20.7343299 C28.334692,20.9130712 28.0565576,21 27.7794728,21" id="Fill-5489" fill="#CBD5E1"></path>
                    <path d="M33.7579888,28 C33.4037048,28 33.0526221,27.8637682 32.8061172,27.6008983 L29.291022,23.8343759 C28.849234,23.3623614 28.9185969,22.6581772 29.4436202,22.2619536 C29.9697107,21.8647707 30.7529772,21.9261709 31.1947651,22.3991448 L34.7098604,26.1656672 C35.1505812,26.6376817 35.0812183,27.3418659 34.556195,27.7390489 C34.3235627,27.9146153 34.0407758,28 33.7579888,28" id="Fill-5490" fill="#CBD5E1"></path>
                    <path d="M10.769511,34 C10.5616193,34 10.3505617,33.9428673 10.1563886,33.8217459 L9.61397053,33.4823776 C9.02723032,33.1155856 8.82567029,32.3020158 9.16441778,31.6655574 C9.50527585,31.029099 10.256641,30.8108521 10.8433812,31.1787867 L11.3857993,31.518155 C11.9735948,31.884947 12.1740996,32.6985168 11.8353521,33.3338326 C11.6074098,33.7611853 11.1937369,34 10.769511,34" id="Fill-5491" fill="#CBD5E1"></path>
                    <path d="M14.8945541,36 C14.7066792,36 14.5169067,35.9561117 14.3432648,35.8630685 L12.5527605,34.9063038 C12.0251928,34.624541 11.8430111,33.9995717 12.1475961,33.5115339 C12.4540788,33.0226183 13.1296691,32.8549651 13.6572369,33.1367279 L15.4477412,34.0934926 C15.9762578,34.3752555 16.1565417,35.0002247 15.8519567,35.4891403 C15.6470024,35.8174247 15.2750481,36 14.8945541,36" id="Fill-5492" fill="#CBD5E1"></path>
                    <path d="M22.8327755,41 C22.635403,41 22.4350249,40.9501796 22.250677,40.8445603 L17.5838699,38.1642212 C17.0258168,37.844374 16.8344557,37.1349311 17.1560626,36.5799315 C17.4786714,36.0249319 18.1920176,35.8356143 18.7500708,36.1554614 L23.4168778,38.8358005 C23.9749309,39.1556477 24.1652902,39.8650906 23.8436832,40.4200902 C23.6272748,40.7917506 23.2355356,41 22.8327755,41" id="Fill-5493" fill="#CBD5E1"></path>
                    <path d="M2,54 C1.7362543,54 1.47852234,53.8926117 1.29295533,53.7070447 C1.10652921,53.5214777 1,53.2646048 1,53 C1,52.7371134 1.10652921,52.4785223 1.29295533,52.2929553 C1.47852234,52.1065292 1.7362543,52 2,52 C2.2628866,52 2.51890034,52.1065292 2.70618557,52.2929553 C2.89261168,52.4785223 3,52.7371134 3,53 C3,53.2628866 2.89261168,53.5214777 2.70618557,53.7070447 C2.51890034,53.8926117 2.2628866,54 2,54" id="Fill-5494" fill="#CBD5E1"></path>
                    <path d="M8.85363537,55 C8.78861783,55 8.72064494,54.9939839 8.65365716,54.9819517 L4.94765709,54.3171738 C4.32407972,54.2048735 3.90737637,53.6002565 4.01770917,52.9645564 C4.12804197,52.3298589 4.72305102,51.9057246 5.34564327,52.018025 L9.05164335,52.6828029 C9.67522072,52.7951032 10.0919241,53.4007229 9.98257638,54.0354203 C9.88406495,54.6019354 9.40037382,55 8.85363537,55" id="Fill-5495" fill="#CBD5E1"></path>
                    <path d="M17.8510304,57 C17.7858651,57 17.7177377,56.9952651 17.6505977,56.9829544 L12.9498106,56.188441 C12.3248162,56.0823796 11.9071659,55.5113527 12.0177494,54.9109695 C12.1283329,54.3115333 12.7256814,53.9109622 13.3487011,54.0170236 L18.0494883,54.811537 C18.6744827,54.9175984 19.092133,55.4895723 18.9825368,56.0890085 C18.8838015,56.6240503 18.3990112,57 17.8510304,57" id="Fill-5496" fill="#CBD5E1"></path>
                    <path d="M2.0752497,76 C1.562912,76 1.10883652,75.6810885 1.0163568,75.2272221 C0.913704296,74.718731 1.30489355,74.2335357 1.89029024,74.1435657 L2.73740456,74.0142338 C3.32372604,73.9250671 3.88045401,74.2640612 3.98310651,74.7725523 C4.0876086,75.2810434 3.69641935,75.7662387 3.11009787,75.8554054 L2.26390834,75.9855405 C2.20102213,75.9951802 2.13721111,76 2.0752497,76" id="Fill-5497" fill="#CBD5E1"></path>
                    <path d="M6.26907529,76 C5.66344257,76 5.12764857,75.5630924 5.01961679,74.9412969 C4.89739901,74.2446659 5.35898936,73.57995 6.04973803,73.4566915 L8.50937074,73.0197838 C9.20121065,72.8965253 9.85922242,73.3620465 9.98034896,74.0586775 C10.1025667,74.7553085 9.64206762,75.4200244 8.95022772,75.5421825 L6.490595,75.9801906 C6.41639136,75.9933969 6.34218771,76 6.26907529,76" id="Fill-5498" fill="#CBD5E1"></path>
                    <path d="M12.2176177,74 C11.6368963,74 11.1231411,73.6353024 11.0185066,73.1162743 C10.9023623,72.5347791 11.3449662,71.9799242 12.0073024,71.8770373 L17.569671,71.0162774 C18.2320073,70.914309 18.8650458,71.3019725 18.9811901,71.8834677 C19.0983807,72.4649629 18.6557769,73.0198177 17.9934407,73.1217861 L12.4300257,73.9834646 C12.3588742,73.9944882 12.2866764,74 12.2176177,74" id="Fill-5499" fill="#CBD5E1"></path>
                    <path d="M10.2667157,97 C9.83000023,97 9.40414837,96.7579957 9.16949531,96.3228532 C8.82077478,95.6747935 9.02718257,94.8463941 9.6322833,94.4729162 L10.1026758,94.1820456 C10.7066902,93.8074043 11.4801762,94.0296294 11.8299831,94.6776891 C12.17979,95.3257488 11.9722958,96.1529848 11.3682814,96.5276261 L10.897889,96.8184967 C10.6979993,96.9418259 10.4807279,97 10.2667157,97" id="Fill-5500" fill="#CBD5E1"></path>
                    <path d="M13.2464159,95 C12.8164942,95 12.3972671,94.7730125 12.1673338,94.3668243 C11.8229687,93.7629723 12.027235,92.9896942 12.6229225,92.6410674 L15.1329381,91.1694497 C15.7275561,90.820823 16.4890095,91.0271753 16.8333747,91.6321133 C17.1766704,92.2370514 16.9724041,93.0092434 16.377786,93.3589562 L13.8677704,94.8305739 C13.6709904,94.9446107 13.457099,95 13.2464159,95" id="Fill-5501" fill="#CBD5E1"></path>
                    <path d="M19.0908369,92 C18.714435,92 18.3483326,91.7779686 18.1460868,91.378739 C17.8455271,90.7841645 18.0234285,90.0241339 18.5449605,89.6814796 L22.3651593,87.1665468 C22.8866913,86.8238925 23.5533534,87.0267097 23.8539132,87.6212842 C24.1544729,88.2158587 23.9765715,88.9758894 23.4550395,89.3185436 L19.6348407,91.8334764 C19.4634936,91.9466271 19.2762289,92 19.0908369,92" id="Fill-5502" fill="#CBD5E1"></path>
                    <path d="M24.2238871,114 C23.9452267,114 23.6665664,113.909593 23.4373288,113.723699 C22.9199668,113.303154 22.8516162,112.557548 23.2859058,112.056753 L23.8379688,111.421871 C24.2722584,110.922092 25.0440951,110.85708 25.5625085,111.27661 C26.080922,111.69614 26.1482211,112.441746 25.71288,112.942541 L25.1618685,113.577423 C24.9200123,113.855755 24.5730013,114 24.2238871,114" id="Fill-5503" fill="#CBD5E1"></path>
                    <path d="M27.1984897,110 C26.9256119,110 26.6527342,109.914888 26.4282536,109.739882 C25.9216276,109.343967 25.8546954,108.642987 26.2799728,108.171523 L27.8832585,106.397557 C28.3085359,105.927049 29.0643559,105.864889 29.5720116,106.260804 C30.0796672,106.655762 30.14454,107.357698 29.7192626,107.828206 L28.1170066,109.602172 C27.8801693,109.865159 27.5403592,110 27.1984897,110" id="Fill-5504" fill="#CBD5E1"></path>
                    <path d="M31.1388848,106 C30.8805566,106 30.62125,105.905375 30.4069551,105.710808 C29.9255254,105.27064 29.8619219,104.490246 30.2660488,103.966085 L32.9892578,100.441555 C33.3933848,99.918457 34.1116152,99.8504118 34.5930449,100.289516 C35.0744746,100.728621 35.1380781,101.510078 34.7339512,102.033175 L32.0126992,105.557706 C31.7866621,105.849025 31.4637519,106 31.1388848,106" id="Fill-5505" fill="#CBD5E1"></path>
                    <path d="M43,124 C42.7371134,124 42.4793814,123.894284 42.2929553,123.706919 C42.1073883,123.521272 42,123.264289 42,123.00043 C42,122.736571 42.1073883,122.479587 42.2929553,122.293941 C42.4793814,122.106575 42.7371134,122 43,122 C43.2637457,122 43.5214777,122.106575 43.7070447,122.293941 C43.8943299,122.479587 44,122.736571 44,123.00043 C44,123.264289 43.8943299,123.521272 43.7070447,123.706919 C43.5214777,123.894284 43.2637457,124 43,124" id="Fill-5506" fill="#CBD5E1"></path>
                    <path d="M44.128104,120 C44.0001867,120 43.8693621,119.979261 43.7433829,119.936882 C43.1570951,119.737608 42.8557141,119.136182 43.0679406,118.591562 L43.812187,116.690801 C44.0253825,116.146181 44.6727218,115.865756 45.2580406,116.063226 C45.8433593,116.261597 46.1447403,116.863024 45.9315448,117.408546 L45.1882675,119.309306 C45.0215873,119.735805 44.5893817,120 44.128104,120" id="Fill-5507" fill="#CBD5E1"></path>
                    <path d="M47.1956123,115 C47.0590143,115 46.9213891,114.975724 46.7868452,114.925062 C46.1665051,114.692858 45.8470916,113.98886 46.0720162,113.351357 L47.6814085,108.808616 C47.9063331,108.171112 48.5934316,107.842861 49.2127447,108.074009 C49.8330847,108.307268 50.1535253,109.012321 49.9275736,109.649825 L48.3192084,114.19151 C48.1425553,114.689692 47.6844896,115 47.1956123,115" id="Fill-5508" fill="#CBD5E1"></path>
                    <path d="M65,128 C64.7371134,128 64.4793814,127.89433 64.2929553,127.707045 C64.1073883,127.521478 64,127.262887 64,127 C64,126.737113 64.1073883,126.480241 64.2929553,126.292955 C64.4793814,126.107388 64.7371134,126 65,126 C65.2637457,126 65.5197595,126.107388 65.7070447,126.292955 C65.8934708,126.478522 66,126.737113 66,127 C66,127.264605 65.8934708,127.521478 65.7070447,127.707045 C65.5197595,127.89433 65.2637457,128 65,128" id="Fill-5509" fill="#CBD5E1"></path>
                    <path d="M65.0123034,125 C64.4701053,125 64.0288799,124.495683 64.0246373,123.871152 L64.0000305,120.146441 C63.995788,119.518 64.4344678,119.004887 64.98006,119 C65.5239552,119.001955 65.9711201,119.500407 65.9753627,120.128848 L65.9999695,123.853559 C66.004212,124.482 65.5655322,124.995113 65.01994,125 L65.0123034,125 Z" id="Fill-5510" fill="#CBD5E1"></path>
                    <path d="M64.9876964,118 L64.9817568,118 C64.4370071,117.996231 63.9966254,117.502557 64.0000195,116.89677 L64.0246266,112.090983 C64.0280206,111.487079 64.4700994,111 65.0123035,111 L65.0182432,111 C65.5638413,111.003769 66.0033746,111.497443 65.9999805,112.10323 L65.9753734,116.90996 C65.9719793,117.512921 65.5307491,118 64.9876964,118" id="Fill-5511" fill="#CBD5E1"></path>
                    <path d="M86,124 C85.7371134,124 85.4802405,123.892612 85.2929553,123.707045 C85.1073883,123.519759 85,123.262887 85,122.998282 C85,122.736254 85.1073883,122.478522 85.2929553,122.291237 C85.4802405,122.10567 85.7371134,122 86,122 C86.2646048,122 86.5214777,122.10567 86.7070447,122.291237 C86.8943299,122.478522 87,122.736254 87,122.998282 C87,123.262887 86.8943299,123.519759 86.7070447,123.707045 C86.5214777,123.892612 86.2646048,124 86,124" id="Fill-5512" fill="#CBD5E1"></path>
                    <path d="M84.929565,121 C84.4919135,121 84.0818451,120.700808 83.9237021,120.217812 L83.064949,117.59554 C82.8626731,116.978776 83.1486177,116.296658 83.703957,116.072009 C84.2592962,115.84736 84.8734794,116.165953 85.0757553,116.782718 L85.9354279,119.404989 C86.1367844,120.021754 85.8517592,120.703871 85.2955005,120.928521 C85.1750544,120.977535 85.05185,121 84.929565,121" id="Fill-5513" fill="#CBD5E1"></path>
                    <path d="M82.8880519,115 C82.4333803,115 82.0073645,114.724184 81.8430714,114.278925 L80.0673687,109.470503 C79.8572263,108.901927 80.1552464,108.273104 80.7312274,108.066007 C81.3091188,107.859851 81.9471874,108.152611 82.1563745,108.721187 L83.9330324,113.529609 C84.1422195,114.098186 83.8451547,114.727008 83.2672633,114.934105 C83.1430883,114.97929 83.0141373,115 82.8880519,115" id="Fill-5514" fill="#CBD5E1"></path>
                    <path d="M105.764025,114 C105.410097,114 105.060421,113.854999 104.814903,113.572195 L104.289857,112.966481 C103.849838,112.460519 103.918923,111.705691 104.441844,111.279943 C104.965827,110.855223 105.745957,110.921039 106.184913,111.428029 L106.711022,112.033743 C107.149978,112.539705 107.080893,113.294533 106.557972,113.720281 C106.326272,113.908474 106.044617,114 105.764025,114" id="Fill-5515" fill="#CBD5E1"></path>
                    <path d="M102.812148,111 C102.471135,111 102.132164,110.868109 101.897334,110.612629 L99.2743899,107.759917 C98.8547597,107.303372 98.9241875,106.626395 99.4295816,106.248247 C99.9339546,105.869176 100.683367,105.930971 101.101976,106.387516 L103.725942,109.240228 C104.145572,109.696773 104.075123,110.37375 103.57075,110.751898 C103.348172,110.918837 103.07965,111 102.812148,111" id="Fill-5516" fill="#CBD5E1"></path>
                    <path d="M98.8092749,107 C98.4696202,107 98.1320117,106.848079 97.8967088,106.554937 L94.278159,102.046532 C93.8556367,101.519089 93.9221354,100.733809 94.425479,100.290885 C94.9288227,99.8490318 95.679746,99.9185729 96.1022682,100.444946 L99.721841,104.953351 C100.144363,105.480794 100.077865,106.266074 99.574521,106.708997 C99.3514947,106.904782 99.0803848,107 98.8092749,107" id="Fill-5517" fill="#CBD5E1"></path>
                    <path d="M118.892682,97 C118.7056,97 118.515669,96.9465901 118.341883,96.833361 L117.55272,96.3206256 C117.023762,95.9766656 116.843328,95.2171763 117.148167,94.6221896 C117.453006,94.0272029 118.12916,93.823177 118.658117,94.167137 L119.44728,94.6798724 C119.976238,95.0227641 120.156672,95.7833216 119.851833,96.3772401 C119.646708,96.7767465 119.274443,97 118.892682,97" id="Fill-5518" fill="#CBD5E1"></path>
                    <path d="M115.885454,95 C115.69711,95 115.505898,94.9500475 115.329983,94.8441482 L112.556449,93.1697404 C112.023922,92.8490454 111.842271,92.1377218 112.149166,91.581251 C112.456062,91.0257792 113.136778,90.8349606 113.669304,91.1556557 L116.442838,92.8300634 C116.975364,93.1507585 117.157972,93.8620821 116.851076,94.4175539 C116.644567,94.7911986 116.269791,95 115.885454,95" id="Fill-5519" fill="#CBD5E1"></path>
                    <path d="M110.799693,92 C110.596856,92 110.39093,91.9490734 110.201479,91.8411089 L105.599041,89.2122756 C105.026568,88.8853265 104.829909,88.1601311 105.16042,87.5928083 C105.49196,87.0254855 106.225055,86.8319643 106.797528,87.1589133 L111.399966,89.7877466 C111.973468,90.1146957 112.170127,90.8398911 111.839617,91.4072139 C111.617217,91.7881452 111.213603,92 110.799693,92" id="Fill-5520" fill="#CBD5E1"></path>
                    <path d="M126.709721,76 C126.635433,76 126.560035,75.994989 126.484638,75.9849669 L126.066626,75.9298456 C125.364765,75.8363065 124.895748,75.3326984 125.019932,74.8031999 C125.143008,74.2745367 125.811605,73.9220945 126.514575,74.0147985 L126.932587,74.0699198 C127.634448,74.1634589 128.103464,74.6679022 127.980389,75.1965655 C127.869511,75.6684371 127.325097,76 126.709721,76" id="Fill-5521" fill="#CBD5E1"></path>
                    <path d="M122.935118,76 C122.874721,76 122.81158,75.9937521 122.749354,75.9812564 L119.880535,75.40541 C119.301281,75.2898242 118.913282,74.6608708 119.016687,74.0017194 C119.118263,73.3425679 119.670064,72.9020923 120.250233,73.0187194 L123.119051,73.5935245 C123.698306,73.7101516 124.08539,74.339105 123.983815,74.9982564 C123.892305,75.5865985 123.442995,76 122.935118,76" id="Fill-5522" fill="#CBD5E1"></path>
                    <path d="M117.84746,74 C117.782092,74 117.713753,73.994614 117.646405,73.9838419 L111.953465,73.0744998 C111.326529,72.9739606 110.907581,72.4317665 111.017517,71.8635399 C111.129435,71.2953133 111.725668,70.9155979 112.353595,71.0161372 L118.046535,71.9254793 C118.673471,72.0260186 119.092419,72.5682127 118.982483,73.1364392 C118.88344,73.6436241 118.397144,74 117.84746,74" id="Fill-5523" fill="#CBD5E1"></path>
                    <path d="M127,54 C126.736254,54 126.480241,53.8943299 126.292955,53.7070447 C126.106529,53.5214777 126,53.2628866 126,53 C126,52.7371134 126.106529,52.4793814 126.292955,52.2929553 C126.480241,52.1065292 126.736254,52 127,52 C127.264605,52 127.520619,52.1065292 127.707045,52.2929553 C127.89433,52.4793814 128,52.7371134 128,53 C128,53.2628866 127.89433,53.5214777 127.707045,53.7070447 C127.520619,53.8943299 127.264605,54 127,54" id="Fill-5524" fill="#CBD5E1"></path>
                    <path d="M120.077812,56 C119.563769,56 119.109002,55.5850141 119.016382,54.9944169 C118.913573,54.3327391 119.305358,53.7013751 119.891645,53.584301 L122.734168,53.0187912 C123.320456,52.9017171 123.879883,53.3438809 123.983618,54.0055588 C124.086427,54.6682819 123.694642,55.2986006 123.108355,55.4156747 L120.265832,55.9811845 C120.20285,55.9937282 120.139868,56 120.077812,56" id="Fill-5525" fill="#CBD5E1"></path>
                    <path d="M112.112541,56 C111.582566,56 111.112859,55.6489774 111.017196,55.1494113 C110.910053,54.5897204 111.314709,54.055671 111.921214,53.9566419 L117.692582,53.0158661 C118.298131,52.916837 118.874981,53.2917327 118.98308,53.8514236 C119.089266,54.4111145 118.684611,54.9451639 118.079062,55.0433088 L112.307694,55.9840846 C112.242643,55.9946949 112.176635,56 112.112541,56" id="Fill-5526" fill="#CBD5E1"></path>
                    <path d="M119.192852,34 C118.780579,34 118.380582,33.7657654 118.159612,33.3477295 C117.831226,32.7234775 118.025598,31.9255109 118.595414,31.5657535 L119.214335,31.1746154 C119.783128,30.8148579 120.511511,31.0289192 120.839897,31.6520505 C121.169306,32.2763024 120.973911,33.0742691 120.405118,33.4340265 L119.786197,33.8251646 C119.598986,33.943963 119.394384,34 119.192852,34" id="Fill-5527" fill="#CBD5E1"></path>
                    <path d="M113.099944,37 C112.720399,37 112.350296,36.7931826 112.147306,36.4240778 C111.844237,35.8728945 112.023624,35.1683298 112.54951,34.850682 L115.351717,33.1545812 C115.876659,32.8359438 116.548886,33.0259387 116.8529,33.577122 C117.155968,34.1273158 116.975638,34.8318804 116.450696,35.1495282 L113.648489,36.8456291 C113.474767,36.9505221 113.285939,37 113.099944,37" id="Fill-5528" fill="#CBD5E1"></path>
                    <path d="M106.095527,41 C105.717507,41 105.34983,40.8021757 105.146715,40.4491209 C104.844863,39.9219051 105.023529,39.2479774 105.547304,38.9441421 L110.35813,36.1480995 C110.881904,35.8433177 111.551433,36.0241044 111.853285,36.5513203 C112.155137,37.0785362 111.976471,37.7524638 111.452696,38.0562992 L106.64187,40.8523417 C106.468846,40.9526736 106.281716,41 106.095527,41" id="Fill-5529" fill="#CBD5E1"></path>
                    <path d="M105,16 C104.737113,16 104.480241,15.8926117 104.292955,15.7070447 C104.107388,15.5214777 104,15.2646048 104,15 C104,14.7371134 104.107388,14.4785223 104.292955,14.2929553 C104.479381,14.1073883 104.737113,14 105,14 C105.264605,14 105.521478,14.1073883 105.707045,14.2929553 C105.89433,14.4785223 106,14.7371134 106,15 C106,15.2628866 105.89433,15.5214777 105.707045,15.7070447 C105.521478,15.8926117 105.264605,16 105,16" id="Fill-5530" fill="#CBD5E1"></path>
                    <path d="M101.191251,22 C100.918938,22 100.647649,21.9142766 100.423452,21.7390197 C99.9207992,21.3437394 99.8563041,20.6446172 100.280129,20.1759957 L101.897627,18.3929481 C102.321452,17.9262316 103.073895,17.8662252 103.576548,18.2615055 C104.079201,18.6558334 104.143696,19.3559081 103.719871,19.8235771 L102.103397,21.6066247 C101.866915,21.8656999 101.530107,22 101.191251,22" id="Fill-5531" fill="#CBD5E1"></path>
                    <path d="M97.0477294,27 C96.8091774,27 96.5706255,26.8990084 96.3743827,26.6913515 C95.9314863,26.2215702 95.8729735,25.388673 96.2447545,24.8303823 L97.1485514,23.4721017 C97.5203324,22.9126762 98.1819765,22.840053 98.6257731,23.3098343 C99.0686696,23.7784808 99.1271824,24.611378 98.7545012,25.1696687 L97.8507043,26.5279493 C97.6436592,26.8388673 97.3465945,27 97.0477294,27" id="Fill-5532" fill="#CBD5E1"></path>
                    <path d="M95.1107093,29 C94.8578178,29 94.6049263,28.9021595 94.3968872,28.7009818 C93.9273678,28.2458585 93.8653378,27.4400483 94.2594669,26.8980778 L96.0382963,24.4575614 C96.4324254,23.9155909 97.1328872,23.8452337 97.6024065,24.2992576 C98.0728802,24.7532816 98.1349102,25.5612904 97.7398268,26.1021616 L95.9619517,28.542678 C95.742461,28.8449942 95.4275394,29 95.1107093,29" id="Fill-5533" fill="#CBD5E1"></path>
                    <path d="M86,5 C85.7371134,5 85.4793814,4.8943299 85.2929553,4.70704467 C85.1073883,4.52147766 85,4.26460481 85,4 C85,3.7371134 85.1073883,3.47852234 85.2929553,3.29295533 C85.4793814,3.10738832 85.7371134,3 86,3 C86.2646048,3 86.5214777,3.10738832 86.7070447,3.29295533 C86.8926117,3.47852234 87,3.7371134 87,4 C87,4.26460481 86.8926117,4.52147766 86.7070447,4.70704467 C86.5214777,4.8943299 86.2628866,5 86,5" id="Fill-5534" fill="#CBD5E1"></path>
                    <path d="M84.0557351,12 C83.9369025,12 83.8162556,11.9782145 83.6983301,11.9316728 C83.1495228,11.7157983 82.8655945,11.0553016 83.0624394,10.4562003 L83.9505093,7.76272049 C84.1482613,7.16361927 84.7533099,6.85268079 85.30121,7.06855528 C85.8509244,7.28343951 86.1348527,7.94393623 85.9371007,8.54303744 L85.0499379,11.2365173 C84.8948205,11.706886 84.4893382,12 84.0557351,12" id="Fill-5535" fill="#CBD5E1"></path>
                    <path d="M81.2547208,18 C81.1125491,18 80.9682233,17.9785814 80.8282058,17.9318499 C80.1765855,17.7196111 79.8405433,17.0692645 80.074265,16.4812266 L81.5670677,12.7485488 C81.8029435,12.1595373 82.5213413,11.854809 83.1718845,12.0680215 C83.8235047,12.2802603 84.160624,12.9296333 83.9247482,13.5186448 L82.4340996,17.2513226 C82.2488456,17.7127961 81.7674005,18 81.2547208,18" id="Fill-5536" fill="#CBD5E1"></path>
                    <path d="M81.2125218,20 C81.0750322,20 80.9344178,19.9770931 80.7990114,19.9271145 C80.1688508,19.6980456 79.844917,19.0025094 80.0730247,18.3736113 L80.6469396,16.7972013 C80.8771305,16.1683032 81.5729111,15.8444832 82.2009886,16.073552 C82.8311492,16.3015796 83.155083,16.9971159 82.9269753,17.6260139 L82.3530604,19.202424 C82.1728657,19.694922 81.7083176,20 81.2125218,20" id="Fill-5537" fill="#CBD5E1"></path>
                    <path d="M64.0008598,2 C63.7360275,2 63.4789338,1.89261168 63.2932072,1.70704467 C63.105761,1.51975945 63,1.2628866 63,1 C63,0.735395189 63.105761,0.478522337 63.2932072,0.291237113 C63.4789338,0.105670103 63.7360275,0 64.0008598,0 C64.2639725,0 64.5210662,0.105670103 64.7067928,0.291237113 C64.894239,0.478522337 65,0.735395189 65,1 C65,1.2628866 64.894239,1.51975945 64.7067928,1.70704467 C64.5210662,1.89261168 64.2639725,2 64.0008598,2" id="Fill-5538" fill="#CBD5E1"></path>
                    <path d="M63.9835116,7 L63.965771,7 C63.4225702,6.98924255 62.9900371,6.51322535 63.0001746,5.93680528 L63.0339663,4.02466839 C63.0441038,3.44824831 63.4901535,2.99643538 64.0358886,3.0000212 C64.5782446,3.01077865 65.0107777,3.48679585 64.9997954,4.06321592 L64.9668485,5.97624926 C64.9567111,6.5454977 64.5182644,7 63.9835116,7" id="Fill-5539" fill="#CBD5E1"></path>
                    <path d="M63.9876964,18 L63.9826053,18 C63.4370071,17.9958458 62.9966254,17.4516422 63.0000195,16.784889 L63.0246266,11.2026483 C63.0280206,10.5369337 63.4700994,10 64.0123035,10 L64.0182432,10 C64.5638413,10.0031157 65.0033746,10.5473192 64.9999805,11.215111 L64.9753734,16.7973517 C64.9719793,17.4630663 64.5307491,18 63.9876964,18" id="Fill-5540" fill="#CBD5E1"></path>
                    <path d="M6.80027885,54.6002883 C7.11001142,53.6961599 7.05873812,52.7223181 6.65169092,51.8600177 C6.24778291,50.9966447 5.5383279,50.3467019 4.65621791,50.0303106 C4.38520191,49.9327119 4.08907246,50.0785737 3.99385062,50.3563545 C3.89967518,50.6330629 4.04093835,50.9376565 4.31300074,51.0352552 C4.93246588,51.2583379 5.43054934,51.7152284 5.71516846,52.3211982 C6.00083397,52.9325306 6.03745775,53.6125038 5.81980784,54.2474315 C5.37195128,55.5591149 3.9645516,56.2530307 2.68481196,55.7929227 C1.40611871,55.3328146 0.729101908,53.8913572 1.17800486,52.5796739 C1.33287114,52.1249284 1.6101655,51.7280986 1.97849613,51.432085 C2.2034708,51.2508303 2.24428016,50.9151338 2.06639321,50.6845435 C1.88955265,50.4528807 1.56203139,50.4131977 1.33601032,50.5944524 C0.81176702,51.01595 0.418322944,51.5811643 0.196487455,52.2278896 C-0.112198722,53.132018 -0.0452295175,54.081192 0.313683562,54.8920118 C0.694570912,55.7543122 1.40402592,56.4610983 2.34159478,56.7978673 C4.16232003,57.4521002 6.16302501,56.4653883 6.80027885,54.6002883" id="Fill-5542" fill="#CBD5E1"></path>
                    <path d="M106.32534,20.8839645 C106.40272,20.9613215 106.504282,21 106.605038,21 C106.706599,21 106.807355,20.9613215 106.883929,20.8839645 C107.03869,20.7300564 107.03869,20.4802579 106.883929,20.3255439 L105.674055,19.1160355 C105.520101,18.9613215 105.269421,18.9613215 105.115466,19.1160355 C104.961511,19.2699436 104.961511,19.5197421 105.115466,19.6744561 L106.32534,20.8839645 Z" id="Fill-5543" fill="#CBD5E1"></path>
                    <path d="M107,22.49 C107,22.219 106.787371,22 106.526418,22 L104.474549,22 C104.211662,22 104,22.219 104,22.49 C104,22.761 104.211662,22.98 104.474549,22.98 L106.526418,22.98 C106.787371,22.98 107,22.761 107,22.49" id="Fill-5544" fill="#CBD5E1"></path>
                    <path d="M106.884534,24.115466 C106.730579,23.9615113 106.479899,23.9615113 106.325945,24.115466 L105.116071,25.3253401 C104.96131,25.4801008 104.96131,25.7299748 105.116071,25.8847355 C105.192645,25.9621159 105.293401,26 105.394962,26 C105.495718,26 105.59728,25.9621159 105.67466,25.8847355 L106.884534,24.6740554 C107.038489,24.5201008 107.038489,24.2694207 106.884534,24.115466" id="Fill-5545" fill="#CBD5E1"></path>
                    <path d="M109.489,25 C109.218,25 109,25.2116624 109,25.4735825 L109,27.525451 C109,27.7873711 109.218,28 109.489,28 C109.76,28 109.979,27.7873711 109.979,27.525451 L109.979,25.4735825 C109.979,25.2116624 109.76,25 109.489,25" id="Fill-5546" fill="#CBD5E1"></path>
                    <path d="M110.115466,24.115466 C109.961511,24.2694207 109.961511,24.5201008 110.115466,24.6740554 L111.32534,25.8847355 C111.40272,25.9621159 111.504282,26 111.605038,26 C111.705793,26 111.807355,25.9621159 111.883929,25.8847355 C112.03869,25.7299748 112.03869,25.4801008 111.883929,25.3261461 L110.673249,24.115466 C110.519295,23.9615113 110.269421,23.9615113 110.115466,24.115466" id="Fill-5547" fill="#CBD5E1"></path>
                    <path d="M111,22.49 C111,22.761 111.212629,22.98 111.473582,22.98 L113.525451,22.98 C113.787371,22.98 114,22.761 114,22.49 C114,22.219 113.787371,22 113.525451,22 L111.473582,22 C111.212629,22 111,22.219 111,22.49" id="Fill-5548" fill="#CBD5E1"></path>
                    <path d="M110.395124,21 C110.495869,21 110.596615,20.9613098 110.673988,20.8839295 L111.884546,19.6740554 C112.038485,19.5201008 112.038485,19.2702267 111.884546,19.115466 C111.729801,18.9615113 111.479952,18.9615113 111.325207,19.115466 L110.115454,20.3261461 C109.961515,20.4801008 109.961515,20.7299748 110.115454,20.8839295 C110.192827,20.9613098 110.293572,21 110.395124,21" id="Fill-5549" fill="#CBD5E1"></path>
                    <path d="M109.489,21 C109.76,21 109.979,20.7873711 109.979,20.5264175 L109.979,18.4735825 C109.979,18.2126289 109.76,18 109.489,18 C109.218,18 109,18.2126289 109,18.4735825 L109,20.5264175 C109,20.7873711 109.218,21 109.489,21" id="Fill-5550" fill="#CBD5E1"></path>
                    <path d="M36.7685929,12.2313462 C36.46005,11.9228846 35.9598526,11.9228846 35.6513097,12.2313462 L33.2314071,14.6516647 C32.9228643,14.9601263 32.9228643,15.4601921 33.2314071,15.7686538 C33.53995,16.0771154 34.0390944,16.0771154 34.3476372,15.7686538 L36.7685929,13.3483353 C37.0771357,13.0398737 37.0771357,12.5398079 36.7685929,12.2313462" id="Fill-5551" fill="#CBD5E1"></path>
                    <path d="M30.7685929,17.2313462 C30.46005,16.9228846 29.9598526,16.9228846 29.6513097,17.2313462 L27.2314071,19.6516647 C26.9228643,19.9601263 26.9228643,20.4601921 27.2314071,20.7686538 C27.53995,21.0771154 28.0390944,21.0771154 28.3476372,20.7686538 L30.7685929,18.3483353 C31.0771357,18.0398737 31.0771357,17.5398079 30.7685929,17.2313462" id="Fill-5552" fill="#CBD5E1"></path>
                    <path d="M36.7685929,19.6516647 L34.3476372,17.2313462 C34.0390944,16.9228846 33.53995,16.9228846 33.2314071,17.2313462 C32.9228643,17.5398079 32.9228643,18.0398737 33.2314071,18.3483353 L35.6513097,20.7686538 C35.9598526,21.0771154 36.46005,21.0771154 36.7685929,20.7686538 C37.0771357,20.4601921 37.0771357,19.9601263 36.7685929,19.6516647" id="Fill-5553" fill="#CBD5E1"></path>
                    <path d="M30.7685929,14.6513097 L28.3476372,12.2314071 C28.0390944,11.9228643 27.53995,11.9228643 27.2314071,12.2314071 C26.9228643,12.53995 26.9228643,13.0390944 27.2314071,13.3476372 L29.6513097,15.7685929 C29.9598526,16.0771357 30.46005,16.0771357 30.7685929,15.7685929 C31.0771357,15.46005 31.0771357,14.9598526 30.7685929,14.6513097" id="Fill-5554" fill="#CBD5E1"></path>
                    <path d="M122,90 C122,89.4466667 121.646465,89 121.209806,89 L117.789141,89 C117.353535,89 117,89.4466667 117,90 C117,90.552 117.353535,91 117.789141,91 L121.209806,91 C121.646465,91 122,90.552 122,90" id="Fill-5555" fill="#CBD5E1"></path>
                    <path d="M115,90 C115,89.4466667 114.64639,89 114.210692,89 L110.789308,89 C110.35361,89 110,89.4466667 110,90 C110,90.552 110.35361,91 110.789308,91 L114.210692,91 C114.64639,91 115,90.552 115,90" id="Fill-5556" fill="#CBD5E1"></path>
                    <path d="M117,95.2106925 L117,91.7893075 C117,91.3536098 116.552298,91 116.000666,91 C115.447702,91 115,91.3536098 115,91.7893075 L115,95.2106925 C115,95.6463902 115.447702,96 116.000666,96 C116.552298,96 117,95.6463902 117,95.2106925" id="Fill-5557" fill="#CBD5E1"></path>
                    <path d="M117,88.2106925 L117,84.7893075 C117,84.3536098 116.552298,84 116.000666,84 C115.447702,84 115,84.3536098 115,84.7893075 L115,88.2106925 C115,88.6463902 115.447702,89 116.000666,89 C116.552298,89 117,88.6463902 117,88.2106925" id="Fill-5558" fill="#CBD5E1"></path>
                    <path d="M81.5,14.2574586 C80.5311533,14.2574586 79.7423774,13.4685083 79.7423774,12.4994475 C79.7423774,11.5303867 80.5311533,10.7425414 81.5,10.7425414 C82.4688467,10.7425414 83.2576226,11.5303867 83.2576226,12.4994475 C83.2576226,13.4685083 82.4688467,14.2574586 81.5,14.2574586 M81.5,10 C80.1224039,10 79,11.121547 79,12.4994475 C79,13.878453 80.1224039,15 81.5,15 C82.8787008,15 84,13.878453 84,12.4994475 C84,11.121547 82.8787008,10 81.5,10" id="Fill-5559" fill="#CBD5E1"></path>
                    <g id="Group" transform="translate(20.000000, 12.000000)"></g>
                    <path d="M46.9156,95.427 C45.9626,95.855 44.9186,95.046 45.0946,94.017 L49.1066,70.478 C49.5936,67.648 48.6546,64.761 46.5986,62.757 L35.7386,52.171 C34.5186,50.981 35.1916,48.908 36.8786,48.663 L51.8866,46.482 C54.7276,46.07 57.1836,44.285 58.4546,41.711 L68.7606,21.277 C69.2286,20.347 70.5446,20.314 71.0606,21.219 L79.2176,35.534 L81.4506,39.48 C81.6446,39.822 81.9796,40.058 82.3666,40.124 L109.2296,44.722 C110.1226,44.875 111.4876,46.482 111.0406,47.268 C109.8876,49.301 107.1076,51.957 106.7126,52.343 C106.1326,52.907 91.0136,66.896 90.9236,68.179 C90.8346,69.463 91.5386,80.505 91.9676,81.506 C92.3966,82.508 96.5956,96.652 94.4246,97.517 C92.4486,98.305 71.3686,87.742 67.5896,85.834 C67.2236,85.65 66.7936,85.648 66.4266,85.829 L46.9156,95.427 Z" id="Fill-5484" fill="#FFE9CA"></path>
                    <path d="M96.1705,61.7819 L90.4975,67.2809 C90.0245,67.7389 89.8085,68.4009 89.9175,69.0499 L94.5935,96.7579 C94.8685,98.3919 93.1505,99.6329 91.6855,98.8579 L66.8495,85.7149 C66.2675,85.4069 65.5715,85.4049 64.9875,85.7099 L40.0805,98.7179 C38.6115,99.4859 36.8995,98.2349 37.1855,96.6019 L39.0245,86.0479" id="Stroke-5564" stroke="#FFD498" stroke-width="3.768" stroke-linecap="round" stroke-linejoin="round"></path>
                    <path d="M47.9264,40.4455 L50.3074,40.1065 C50.9584,40.0135 51.5234,39.6055 51.8164,39.0165 L64.3204,13.8525 C65.0574,12.3675 67.1774,12.3735 67.9064,13.8625 L80.2744,39.0935 C80.5644,39.6845 81.1254,40.0945 81.7774,40.1915 L109.5734,44.3075 C111.2134,44.5495 111.8634,46.5685 110.6724,47.7215 L101.3764,56.7345" id="Stroke-5565" stroke="#FFD498" stroke-width="3.768" stroke-linecap="round" stroke-linejoin="round"></path>
                    <path d="M34.8883,42.3044 L43.2543,41.1114" id="Stroke-5566" stroke="#FFD498" stroke-width="3.768" stroke-linecap="round" stroke-linejoin="round"></path>
                    <path d="M27.943,53.924 L21.371,47.48 C20.187,46.32 20.847,44.306 22.489,44.071 L29.255,43.113" id="Stroke-5567" stroke="#FFD498" stroke-width="3.768" stroke-linecap="round" stroke-linejoin="round"></path>
                    <path d="M31.899,57.7981 L31.882,57.8181" id="Stroke-5568" stroke="#FFD498" stroke-width="3.768" stroke-linecap="round" stroke-linejoin="round"></path>
                    <path d="M40.0435,80.2038 L42.0105,68.9198 C42.1225,68.2718 41.9095,67.6088 41.4395,67.1478 L35.9505,61.7498" id="Stroke-5569" stroke="#FFD498" stroke-width="3.768" stroke-linecap="round" stroke-linejoin="round"></path>
                    <path d="M10.0004809,99.8122145 C8.44992185,99.8122145 7.18792834,98.5503727 7.18792834,97 C7.18792834,95.4496273 8.44992185,94.1877855 10.0004809,94.1877855 C11.5500782,94.1877855 12.8120717,95.4496273 12.8120717,97 C12.8120717,98.5503727 11.5500782,99.8122145 10.0004809,99.8122145 M10.0004809,93 C7.79391608,93 6,94.7946622 6,97 C6,99.2062996 7.79391608,101 10.0004809,101 C12.2060839,101 14,99.2062996 14,97 C14,94.7946622 12.2060839,93 10.0004809,93" id="Fill-5560" fill="#CBD5E1"></path>
                    <path d="M128.830639,54.0150249 L126.315743,51.5001289 L128.830639,48.9842018 C129.056454,48.7594182 129.056454,48.3933714 128.830639,48.1685877 C128.605855,47.9438041 128.24084,47.9438041 128.015025,48.1685877 L125.500129,50.6845148 L122.985233,48.1685877 C122.759418,47.9438041 122.394403,47.9438041 122.168588,48.1685877 C121.943804,48.3944025 121.943804,48.7594182 122.168588,48.9852329 L124.684515,51.5001289 L122.168588,54.0150249 C121.943804,54.2398085 121.943804,54.6058553 122.168588,54.8306389 C122.394403,55.0554226 122.759418,55.0554226 122.984202,54.8306389 L125.500129,52.315743 L128.015025,54.8306389 C128.24084,55.0564537 128.605855,55.0564537 128.830639,54.8306389 C129.056454,54.6058553 129.056454,54.2398085 128.830639,54.0150249" id="Fill-5561" fill="#CBD5E1"></path>
                    <path d="M83.4487693,123.948832 L80.0507155,123.948832 L80.0507155,120.551168 C80.0507155,120.247253 79.8044648,120 79.4994848,120 C79.1955352,120 78.9492845,120.247253 78.9492845,120.551168 L78.9492845,123.948832 L75.5502003,123.948832 C75.2462507,123.948832 75,124.196085 75,124.5 C75,124.804945 75.2462507,125.051168 75.5502003,125.051168 L78.9492845,125.051168 L78.9492845,128.448832 C78.9492845,128.752747 79.1955352,129 79.4994848,129 C79.8044648,129 80.0507155,128.752747 80.0507155,128.448832 L80.0507155,125.051168 L83.4487693,125.051168 C83.7527189,125.051168 84,124.804945 84,124.5 C84,124.196085 83.7527189,123.948832 83.4487693,123.948832" id="Fill-5562" fill="#CBD5E1"></path>
                    <path d="M45,124 C45,124.552335 44.5521547,125 44.0004027,125 C43.4478453,125 43,124.552335 43,124 C43,123.447665 43.4478453,123 44.0004027,123 C44.5521547,123 45,123.447665 45,124" id="Fill-5563" fill="#CBD5E1"></path>
                </g>
            </g>
        </g>
    </g>
</svg>